<svg width="17" height="16" viewBox="0 0 17 16" fill="none" xmlns="http://www.w3.org/2000/svg">
<path fill-rule="evenodd" clip-rule="evenodd" d="M13.5895 3.02366C12.2768 1.7095 10.5312 0.985457 8.67133 0.984695C4.83918 0.984695 1.7202 4.10342 1.71871 7.93675C1.71817 9.16216 2.03832 10.3582 2.64677 11.4126L1.6604 15.0153L5.34608 14.0485C6.36157 14.6024 7.50493 14.8944 8.66856 14.8948H8.67138C8.67116 14.8948 8.67161 14.8948 8.67138 14.8948C12.5031 14.8948 15.6224 11.7757 15.624 7.94231C15.6247 6.08456 14.9021 4.33777 13.5895 3.02366ZM8.67135 13.7206H8.66901C7.63213 13.7202 6.61509 13.4416 5.72784 12.9151L5.51685 12.7899L3.32971 13.3636L3.91352 11.2312L3.7761 11.0125C3.19766 10.0924 2.89216 9.02903 2.89261 7.93714C2.89385 4.75103 5.48623 2.15894 8.6737 2.15894C10.2172 2.15942 11.6681 2.76131 12.7591 3.85359C13.8502 4.94588 14.4507 6.39777 14.45 7.94183C14.4487 11.1282 11.8565 13.7206 8.67135 13.7206Z" fill="#FBFBFB"/>
<path fill-rule="evenodd" clip-rule="evenodd" d="M11.8412 9.39261C11.6675 9.30566 10.8134 8.88546 10.6541 8.82743C10.4949 8.76947 10.3791 8.74048 10.2633 8.91439C10.1475 9.08826 9.81455 9.47959 9.7132 9.59556C9.61189 9.71144 9.51051 9.72603 9.33683 9.63899C9.16313 9.55204 8.60337 9.36862 7.93984 8.77678C7.42337 8.3161 7.07474 7.74726 6.97337 7.5733C6.87205 7.39942 6.96259 7.30541 7.04957 7.21877C7.12771 7.1409 7.2233 7.01588 7.31017 6.91442C7.39701 6.81302 7.42597 6.74049 7.48388 6.62464C7.54179 6.50867 7.51286 6.40721 7.4694 6.32029C7.42597 6.23334 7.07855 5.37826 6.9338 5.03037C6.79275 4.69167 6.64955 4.73756 6.54289 4.73217C6.44172 4.72712 6.32575 4.72607 6.20996 4.72607C6.09416 4.72607 5.90592 4.76956 5.74672 4.94344C5.58749 5.11737 5.13867 5.53769 5.13867 6.39268C5.13867 7.24778 5.76117 8.07385 5.84804 8.18975C5.93488 8.30575 7.07302 10.0604 8.81568 10.8129C9.23015 10.9919 9.55375 11.0988 9.80603 11.1788C10.2222 11.311 10.6009 11.2924 10.9002 11.2476C11.234 11.1978 11.9281 10.8274 12.0728 10.4216C12.2176 10.0158 12.2176 9.66795 12.1741 9.59553C12.1307 9.52308 12.0149 9.47959 11.8412 9.39261Z" fill="white"/>
</svg>
