<svg width="34" height="34" viewBox="0 0 34 34" fill="none" xmlns="http://www.w3.org/2000/svg">
<path fill-rule="evenodd" clip-rule="evenodd" d="M27.8151 6.42531C25.0257 3.6327 21.3163 2.09412 17.364 2.0925C9.22072 2.0925 2.5929 8.71978 2.58972 16.8656C2.58858 19.4696 3.26891 22.0112 4.56185 24.2517L2.46582 31.9076L10.2979 29.8531C12.4558 31.0301 14.8854 31.6505 17.3582 31.6514H17.3642C17.3637 31.6514 17.3646 31.6514 17.3642 31.6514C25.5066 31.6514 32.135 25.0234 32.1384 16.8774C32.1399 12.9297 30.6045 9.21779 27.8151 6.42531ZM17.3641 29.1562H17.3591C15.1557 29.1554 12.9945 28.5634 11.1091 27.4446L10.6608 27.1785L6.01311 28.3976L7.2537 23.8662L6.96169 23.4016C5.7325 21.4465 5.0833 19.1867 5.08426 16.8665C5.0869 10.096 10.5957 4.58776 17.3691 4.58776C20.649 4.58878 23.7322 5.8678 26.0506 8.18891C28.369 10.51 29.6451 13.5953 29.6438 16.8764C29.6411 23.6474 24.1324 29.1562 17.3641 29.1562Z" fill="url(#paint0_linear_15_577)"/>
<path fill-rule="evenodd" clip-rule="evenodd" d="M24.0998 19.9593C23.7306 19.7746 21.9156 18.8816 21.5773 18.7583C21.2389 18.6351 20.9928 18.5736 20.7467 18.9431C20.5007 19.3126 19.7932 20.1442 19.5778 20.3906C19.3625 20.6368 19.1471 20.6678 18.778 20.4829C18.4089 20.2981 17.2194 19.9084 15.8094 18.6507C14.7119 17.6718 13.9711 16.463 13.7557 16.0933C13.5404 15.7238 13.7328 15.524 13.9176 15.3399C14.0836 15.1745 14.2868 14.9088 14.4714 14.6932C14.6559 14.4777 14.7174 14.3236 14.8405 14.0774C14.9636 13.831 14.9021 13.6154 14.8097 13.4306C14.7174 13.2459 13.9792 11.4288 13.6716 10.6896C13.3718 9.96983 13.0675 10.0673 12.8409 10.0559C12.6259 10.0452 12.3795 10.0429 12.1334 10.0429C11.8873 10.0429 11.4873 10.1354 11.149 10.5048C10.8107 10.8745 9.85693 11.7676 9.85693 13.5845C9.85693 15.4016 11.1797 17.157 11.3643 17.4033C11.5489 17.6497 13.9674 21.3783 17.6706 22.9774C18.5513 23.3578 19.239 23.5849 19.7751 23.755C20.6594 24.036 21.4642 23.9963 22.1002 23.9012C22.8095 23.7953 24.2844 23.0083 24.592 22.146C24.8996 21.2836 24.8996 20.5444 24.8073 20.3905C24.715 20.2366 24.4689 20.1442 24.0998 19.9593Z" fill="url(#paint1_linear_15_577)"/>
<defs>
<linearGradient id="paint0_linear_15_577" x1="2.46582" y1="18.6399" x2="32.1384" y2="18.6399" gradientUnits="userSpaceOnUse">
<stop stop-color="#F50591"/>
<stop offset="0.5" stop-color="#6A30A5"/>
<stop offset="1" stop-color="#519FFC"/>
</linearGradient>
<linearGradient id="paint1_linear_15_577" x1="9.85693" y1="17.7736" x2="24.8611" y2="17.7736" gradientUnits="userSpaceOnUse">
<stop stop-color="#F50591"/>
<stop offset="0.5" stop-color="#6A30A5"/>
<stop offset="1" stop-color="#519FFC"/>
</linearGradient>
</defs>
</svg>
