<svg width="543" height="389" viewBox="0 0 543 389" fill="none" xmlns="http://www.w3.org/2000/svg">
<path d="M271.5 0C287.5 8 311.5 32.4 325.5 54C339.5 75.6 350.667 106.333 354.5 119C359.667 113.833 374.9 100.6 394.5 89C414.1 77.4 441 71.1667 452 69.5C458.5 86 465 115.5 465 135C465 153.111 461.5 178.833 458.5 190.5C466.833 188.667 486.8 184.6 500 183C513.2 181.4 534.167 183.667 543 185C542.333 198.833 539.8 230.3 535 245.5C529 264.5 509.5 322.5 446 357C395.2 384.6 338.5 381 309.5 377C308.758 377.342 307.447 377.873 305.85 378.518C302.78 379.757 298.657 381.422 295.5 383C290.7 385.4 277.5 387.667 271.5 388.5C265.5 387.667 252.3 385.4 247.5 383C244.343 381.422 240.22 379.757 237.15 378.518C235.553 377.873 234.242 377.342 233.5 377C204.5 381 147.8 384.6 97 357C33.5 322.5 14 264.5 8 245.5C3.2 230.3 0.666667 198.833 0 185C8.83333 183.667 29.8 181.4 43 183C56.2 184.6 76.1667 188.667 84.5 190.5C81.5 178.833 78 153.111 78 135C78 115.5 84.5 86 91 69.5C102 71.1667 128.9 77.4 148.5 89C168.1 100.6 183.333 113.833 188.5 119C192.333 106.333 203.5 75.6 217.5 54C231.5 32.4 255.5 8 271.5 0ZM271.5 203.5C248.333 222 205.5 259.5 209 301.5C211.627 333.021 227.5 357.5 271.5 363.5C315.5 357.5 331.373 333.021 334 301.5C337.5 259.5 294.667 222 271.5 203.5ZM105 224C73.4369 207.868 51.5 207 28 208C28.1667 210.833 29.1 220.3 31.5 235.5C34.5 254.5 52.5 283.5 57.5 288.5C62.5 293.5 69.5 299 81 299C92.5 299 101 294 103.5 278.5C105.5 266.1 90.6667 261.667 83 261V269C83 272 82.5 278.5 75 278.5C67.5 278.5 62 270.5 61.5 258.5C61 246.5 78.5 233 97 238.5C115.5 244 127.5 259.5 124 288.5C121.2 311.7 97.8333 319.167 86.5 320C85.8333 321 88.6 325.1 105 333.5C117.119 339.707 121.2 341.022 126.127 342.609C129.534 343.707 133.346 344.934 140.5 348C154.296 353.913 188.971 354.646 204.811 354.507C205.089 354.593 205.32 354.59 205.5 354.5C205.274 354.502 205.044 354.505 204.811 354.507C201.475 353.474 191.337 339.642 181 309C167 267.5 127.5 235.5 105 224ZM515 208C491.5 207 469.563 207.868 438 224C415.5 235.5 376 267.5 362 309C351.663 339.642 341.525 353.474 338.189 354.507C337.956 354.505 337.726 354.502 337.5 354.5C337.68 354.59 337.911 354.593 338.189 354.507C354.029 354.646 388.704 353.913 402.5 348C409.654 344.934 413.466 343.707 416.873 342.609C421.8 341.022 425.881 339.707 438 333.5C454.4 325.1 457.167 321 456.5 320C445.167 319.167 421.8 311.7 419 288.5C415.5 259.5 427.5 244 446 238.5C464.5 233 482 246.5 481.5 258.5C481 270.5 475.5 278.5 468 278.5C460.5 278.5 460 272 460 269V261C452.333 261.667 437.5 266.1 439.5 278.5C442 294 450.5 299 462 299C473.5 299 480.5 293.5 485.5 288.5C490.5 283.5 508.5 254.5 511.5 235.5C513.9 220.3 514.833 210.833 515 208ZM105.5 98C102.833 107.667 98.9 129.3 100.5 138.5C100.712 139.72 100.93 141.266 101.182 143.056C103.306 158.137 107.864 190.5 132 190.5C153.6 190.5 147.5 166.5 141.5 160.5C139.333 163.5 134.5 170 130 170C125 170 121 164.5 121 158.5C121 152.5 127 140.5 139.5 140C152 139.5 171.287 149 169.5 177C168.3 195.8 150 210 134.5 213C140.5 216.833 154.7 227.1 163.5 237.5C172.3 247.9 184.833 262.5 190 268.5C190.5 264.167 194.1 251.9 204.5 237.5C214.9 223.1 221.5 215.167 223.5 213C216.5 187.5 191.801 151.491 174 136.5C155 120.5 125.5 100.5 105.5 98ZM437.5 98C417.5 100.5 388 120.5 369 136.5C351.199 151.491 326.5 187.5 319.5 213C321.5 215.167 328.1 223.1 338.5 237.5C348.9 251.9 352.5 264.167 353 268.5C358.167 262.5 370.7 247.9 379.5 237.5C388.3 227.1 402.5 216.833 408.5 213C393 210 374.7 195.8 373.5 177C371.713 149 391 139.5 403.5 140C416 140.5 422 152.5 422 158.5C422 164.5 418 170 413 170C408.5 170 403.667 163.5 401.5 160.5C395.5 166.5 389.4 190.5 411 190.5C435.136 190.5 439.694 158.137 441.818 143.056C442.07 141.266 442.288 139.72 442.5 138.5C444.1 129.3 440.167 107.667 437.5 98ZM271.5 28.5C261.5 37 247.5 53 236 70.5C224.918 87.3639 212.333 123.333 208.5 140C212.333 144.5 221.2 155.4 226 163C230.8 170.6 238.667 187 242 194.25L271.5 170.5L301 194.25C304.333 187 312.2 170.6 317 163C321.8 155.4 330.667 144.5 334.5 140C330.667 123.333 318.082 87.3639 307 70.5C295.5 53 281.5 37 271.5 28.5Z" fill="#6A994E"/>
</svg>
