<svg width="1231" height="456" viewBox="0 0 1231 456" fill="none" xmlns="http://www.w3.org/2000/svg">
<path d="M615.812 0.287109C627.711 6.51814 645.173 24.3572 655.427 40.1768C665.843 56.2473 674.151 79.1128 677.003 88.5371C680.847 84.693 692.181 74.8474 706.764 66.2168C721.346 57.5862 741.361 52.949 749.545 51.709C754.381 63.9853 759.217 85.9333 759.217 100.441C759.217 113.916 756.613 133.054 754.381 141.734C760.581 140.37 775.437 137.345 785.258 136.154C795.079 134.964 810.678 136.651 817.25 137.643C816.754 147.935 814.869 171.346 811.298 182.655C806.834 196.792 792.326 239.945 745.081 265.613C707.285 286.148 665.099 283.469 643.522 280.493C642.971 280.748 641.995 281.142 640.807 281.622C638.523 282.544 635.455 283.783 633.106 284.957C629.982 286.519 622.072 288.006 617.152 288.769L615.25 289.049C610.786 288.429 600.965 286.743 597.394 284.957C595.045 283.783 591.977 282.544 589.693 281.622C588.505 281.142 587.529 280.748 586.978 280.493C565.401 283.469 523.215 286.148 485.419 265.613C438.174 239.945 423.666 196.792 419.202 182.655C415.631 171.346 413.746 147.935 413.25 137.643C419.822 136.651 435.421 134.964 445.242 136.154C455.063 137.345 469.919 140.37 476.119 141.734C473.887 133.054 471.283 113.916 471.283 100.441C471.283 85.9333 476.119 63.9853 480.955 51.709C489.139 52.949 509.154 57.5862 523.736 66.2168C538.319 74.8474 549.653 84.693 553.497 88.5371C556.349 79.1128 564.657 56.2473 575.073 40.1768C585.489 24.1061 603.346 5.95221 615.25 0L615.812 0.287109ZM613.593 152.738C596.056 166.918 566.226 194.048 568.749 224.32C570.703 247.772 582.514 265.985 615.25 270.449L616.77 270.229C648.353 265.414 659.827 247.406 661.751 224.32C664.355 193.072 632.486 165.171 615.25 151.406L613.593 152.738ZM491.371 166.659C467.888 154.657 451.566 154.011 434.082 154.755C434.206 156.863 434.901 163.906 436.687 175.215C438.919 189.351 452.311 210.927 456.031 214.647C459.751 218.368 464.959 222.46 473.516 222.46C482.072 222.46 488.396 218.74 490.256 207.208C491.744 197.982 480.707 194.684 475.003 194.188V200.14C475.003 202.372 474.631 207.208 469.051 207.208C463.471 207.208 459.379 201.255 459.007 192.327C458.635 183.399 471.655 173.356 485.419 177.447C499.183 181.539 508.112 193.071 505.508 214.647C503.425 231.908 486.04 237.464 477.607 238.084C477.111 238.828 479.169 241.879 491.371 248.129C500.388 252.747 503.425 253.725 507.091 254.905C509.626 255.722 512.462 256.636 517.784 258.917C528.049 263.316 553.847 263.862 565.632 263.758C565.839 263.822 566.012 263.82 566.146 263.753C565.978 263.755 565.806 263.756 565.632 263.758C563.15 262.989 555.608 252.697 547.917 229.9C537.501 199.024 508.111 175.215 491.371 166.659ZM796.418 154.755C778.934 154.011 762.612 154.657 739.129 166.659C722.389 175.215 692.999 199.024 682.583 229.9C674.892 252.697 667.35 262.989 664.868 263.758C664.694 263.756 664.522 263.755 664.354 263.753C664.488 263.82 664.661 263.822 664.868 263.758C676.653 263.862 702.451 263.316 712.716 258.917C718.038 256.636 720.874 255.722 723.409 254.905C727.075 253.725 730.112 252.747 739.129 248.129C751.331 241.879 753.389 238.828 752.893 238.084C744.46 237.464 727.075 231.908 724.992 214.647C722.388 193.071 731.317 181.539 745.081 177.447C758.845 173.356 771.865 183.399 771.493 192.327C771.121 201.255 767.029 207.208 761.449 207.208C755.869 207.208 755.497 202.372 755.497 200.14V194.188C749.793 194.684 738.756 197.982 740.244 207.208C742.104 218.74 748.428 222.46 756.984 222.46C765.541 222.46 770.749 218.368 774.469 214.647C778.189 210.927 791.581 189.351 793.813 175.215C795.599 163.906 796.294 156.863 796.418 154.755ZM491.743 72.9131C489.759 80.1053 486.833 96.201 488.023 103.046C488.181 103.954 488.344 105.104 488.531 106.436C490.112 117.656 493.503 141.734 511.46 141.734C527.53 141.734 522.992 123.878 518.528 119.414C516.916 121.646 513.32 126.482 509.972 126.482C506.252 126.482 503.275 122.39 503.275 117.926C503.275 113.462 507.74 104.533 517.04 104.161C526.34 103.789 540.69 110.858 539.36 131.69C538.467 145.678 524.852 156.242 513.32 158.475C517.785 161.327 528.349 168.965 534.896 176.703C541.444 184.441 550.769 195.304 554.613 199.768C554.985 196.544 557.664 187.417 565.401 176.703C573.139 165.99 578.049 160.087 579.537 158.475C574.329 139.502 555.953 112.711 542.709 101.558C528.573 89.6534 506.623 74.7731 491.743 72.9131ZM738.757 72.9131C723.877 74.7731 701.927 89.6534 687.791 101.558C674.547 112.711 656.171 139.502 650.963 158.475C652.451 160.087 657.361 165.99 665.099 176.703C672.836 187.417 675.515 196.544 675.887 199.768C679.731 195.304 689.056 184.441 695.604 176.703C702.151 168.965 712.715 161.327 717.18 158.475C705.648 156.242 692.033 145.678 691.14 131.69C689.81 110.858 704.16 103.789 713.46 104.161C722.76 104.533 727.225 113.462 727.225 117.926C727.225 122.39 724.248 126.482 720.528 126.482C717.18 126.482 713.584 121.646 711.972 119.414C707.508 123.878 702.97 141.734 719.04 141.734C736.997 141.734 740.388 117.656 741.969 106.436C742.156 105.104 742.319 103.954 742.477 103.046C743.667 96.201 740.741 80.1053 738.757 72.9131ZM614.544 21.8135C607.161 28.2736 597.127 39.8391 588.838 52.4521C580.593 64.999 571.229 91.7607 568.377 104.161C571.229 107.509 577.826 115.62 581.397 121.274C584.969 126.929 590.822 139.13 593.302 144.524L615.25 126.854L637.198 144.524C639.678 139.13 645.531 126.929 649.103 121.274C652.674 115.62 659.271 107.509 662.123 104.161C659.271 91.7607 649.907 64.999 641.662 52.4521C633.106 39.4321 622.69 27.5282 615.25 21.2041L614.544 21.8135Z" fill="#6A994E"/>
<path d="M41.625 402.611L60.5625 333.049H85.125L54.4375 424.049H38.5625L41.625 402.611ZM24.4375 333.049L43.375 402.611L46.5625 424.049H30.5L0 333.049H24.4375ZM195.397 407.174V424.049H146.897V407.174H195.397ZM154.71 333.049V424.049H132.772V333.049H154.71ZM189.147 369.174V385.486H146.897V369.174H189.147ZM195.585 333.049V349.986H146.897V333.049H195.585ZM245.357 333.049H281.17C288.17 333.049 294.253 334.09 299.42 336.174C304.587 338.257 308.566 341.34 311.357 345.424C314.191 349.507 315.607 354.549 315.607 360.549C315.607 365.757 314.795 370.111 313.17 373.611C311.545 377.111 309.274 380.007 306.357 382.299C303.482 384.549 300.128 386.403 296.295 387.861L289.107 391.924H259.045L258.92 374.986H281.17C283.962 374.986 286.274 374.486 288.107 373.486C289.941 372.486 291.316 371.07 292.232 369.236C293.191 367.361 293.67 365.132 293.67 362.549C293.67 359.924 293.191 357.674 292.232 355.799C291.274 353.924 289.857 352.486 287.982 351.486C286.149 350.486 283.878 349.986 281.17 349.986H267.295V424.049H245.357V333.049ZM295.17 424.049L275.045 383.799L298.295 383.674L318.67 423.111V424.049H295.17ZM399.38 424.049H379.193L379.318 407.174H399.38C403.547 407.174 407.068 406.174 409.943 404.174C412.859 402.174 415.068 399.195 416.568 395.236C418.109 391.236 418.88 386.32 418.88 380.486V376.549C418.88 372.174 418.443 368.34 417.568 365.049C416.734 361.715 415.484 358.945 413.818 356.736C412.151 354.486 410.068 352.799 407.568 351.674C405.109 350.549 402.276 349.986 399.068 349.986H378.818V333.049H399.068C405.234 333.049 410.88 334.111 416.005 336.236C421.172 338.32 425.63 341.32 429.38 345.236C433.172 349.111 436.088 353.715 438.13 359.049C440.213 364.34 441.255 370.215 441.255 376.674V380.486C441.255 386.903 440.213 392.778 438.13 398.111C436.088 403.445 433.193 408.049 429.443 411.924C425.693 415.799 421.255 418.799 416.13 420.924C411.047 423.007 405.463 424.049 399.38 424.049ZM391.755 333.049V424.049H369.818V333.049H391.755ZM556.277 407.174V424.049H507.777V407.174H556.277ZM515.59 333.049V424.049H493.652V333.049H515.59ZM550.027 369.174V385.486H507.777V369.174H550.027ZM556.465 333.049V349.986H507.777V333.049H556.465Z" fill="#E8E1D9"/>
<path d="M652.125 333.049V424.049H630.188V333.049H652.125ZM687.5 370.924V387.799H645.875V370.924H687.5ZM691.062 333.049V349.986H645.875V333.049H691.062ZM818.147 376.736V380.424C818.147 387.382 817.168 393.632 815.21 399.174C813.293 404.674 810.564 409.382 807.022 413.299C803.481 417.174 799.293 420.153 794.46 422.236C789.627 424.278 784.293 425.299 778.46 425.299C772.585 425.299 767.21 424.278 762.335 422.236C757.502 420.153 753.293 417.174 749.71 413.299C746.168 409.382 743.418 404.674 741.46 399.174C739.543 393.632 738.585 387.382 738.585 380.424V376.736C738.585 369.778 739.543 363.528 741.46 357.986C743.418 352.445 746.147 347.736 749.647 343.861C753.189 339.945 757.377 336.965 762.21 334.924C767.085 332.84 772.46 331.799 778.335 331.799C784.168 331.799 789.502 332.84 794.335 334.924C799.21 336.965 803.418 339.945 806.96 343.861C810.502 347.736 813.252 352.445 815.21 357.986C817.168 363.528 818.147 369.778 818.147 376.736ZM795.897 380.424V376.611C795.897 372.111 795.502 368.153 794.71 364.736C793.96 361.278 792.835 358.382 791.335 356.049C789.835 353.715 787.981 351.965 785.772 350.799C783.606 349.59 781.127 348.986 778.335 348.986C775.418 348.986 772.877 349.59 770.71 350.799C768.543 351.965 766.731 353.715 765.272 356.049C763.814 358.382 762.71 361.278 761.96 364.736C761.252 368.153 760.897 372.111 760.897 376.611V380.424C760.897 384.882 761.252 388.84 761.96 392.299C762.71 395.715 763.814 398.611 765.272 400.986C766.772 403.361 768.606 405.153 770.772 406.361C772.981 407.57 775.543 408.174 778.46 408.174C781.252 408.174 783.731 407.57 785.897 406.361C788.064 405.153 789.877 403.361 791.335 400.986C792.835 398.611 793.96 395.715 794.71 392.299C795.502 388.84 795.897 384.882 795.897 380.424ZM870.482 333.049H906.295C913.295 333.049 919.378 334.09 924.545 336.174C929.712 338.257 933.691 341.34 936.482 345.424C939.316 349.507 940.732 354.549 940.732 360.549C940.732 365.757 939.92 370.111 938.295 373.611C936.67 377.111 934.399 380.007 931.482 382.299C928.607 384.549 925.253 386.403 921.42 387.861L914.232 391.924H884.17L884.045 374.986H906.295C909.087 374.986 911.399 374.486 913.232 373.486C915.066 372.486 916.441 371.07 917.357 369.236C918.316 367.361 918.795 365.132 918.795 362.549C918.795 359.924 918.316 357.674 917.357 355.799C916.399 353.924 914.982 352.486 913.107 351.486C911.274 350.486 909.003 349.986 906.295 349.986H892.42V424.049H870.482V333.049ZM920.295 424.049L900.17 383.799L923.42 383.674L943.795 423.111V424.049H920.295ZM1005.82 333.049H1023.69L1044.01 396.361L1064.32 333.049H1082.19L1051.26 424.049H1036.76L1005.82 333.049ZM994.943 333.049H1013.44L1016.88 402.799V424.049H994.943V333.049ZM1074.57 333.049H1093.13V424.049H1071.13V402.799L1074.57 333.049ZM1187.84 352.174L1165.65 424.049H1142.09L1175.53 333.049H1190.46L1187.84 352.174ZM1206.21 424.049L1183.96 352.174L1181.09 333.049H1196.21L1229.84 424.049H1206.21ZM1205.34 390.111V407.049H1158.65V390.111H1205.34Z" fill="#E8E1D9"/>
</svg>
