<svg width="34" height="34" viewBox="0 0 34 34" fill="none" xmlns="http://www.w3.org/2000/svg">
<path d="M17.0001 2.49332C13.0603 2.49332 12.5662 2.51002 11.019 2.58061C9.4749 2.6511 8.42037 2.89629 7.49758 3.25492C6.54364 3.62565 5.73464 4.12168 4.92818 4.92815C4.12171 5.73461 3.62568 6.54361 3.25496 7.49755C2.89632 8.42028 2.65113 9.47481 2.58065 11.0189C2.51005 12.5662 2.49341 13.0602 2.49341 17C2.49341 20.9397 2.51005 21.4337 2.58065 22.981C2.65113 24.5251 2.89632 25.5796 3.25496 26.5023C3.62568 27.4563 4.12171 28.2653 4.92818 29.0718C5.73464 29.8782 6.54364 30.3743 7.49758 30.745C8.42037 31.1036 9.4749 31.3488 11.019 31.4193C12.5662 31.4898 13.0603 31.5065 17.0001 31.5065C20.9398 31.5065 21.4338 31.4898 22.9811 31.4193C24.5251 31.3488 25.5797 31.1036 26.5024 30.745C27.4563 30.3743 28.2653 29.8782 29.0719 29.0718C29.8783 28.2653 30.3744 27.4563 30.7451 26.5023C31.1037 25.5796 31.3489 24.5251 31.4193 22.981C31.4899 21.4337 31.5066 20.9397 31.5066 17C31.5066 13.0602 31.4899 12.5662 31.4193 11.0189C31.3489 9.47481 31.1037 8.42028 30.7451 7.49755C30.3744 6.54361 29.8783 5.73461 29.0719 4.92815C28.2653 4.12168 27.4563 3.62565 26.5024 3.25492C25.5797 2.89629 24.5251 2.6511 22.9811 2.58061C21.4338 2.51002 20.9398 2.49332 17.0001 2.49332ZM17.0001 5.10717C20.8734 5.10717 21.3323 5.12192 22.8619 5.19171C24.2763 5.25626 25.0444 5.49258 25.5556 5.69119C26.2327 5.95435 26.716 6.26876 27.2236 6.77636C27.7313 7.28397 28.0456 7.76727 28.3088 8.44435C28.5074 8.95552 28.7438 9.72363 28.8082 11.138C28.878 12.6677 28.8928 13.1265 28.8928 17C28.8928 20.8734 28.878 21.3322 28.8082 22.8619C28.7438 24.2762 28.5074 25.0443 28.3088 25.5555C28.0456 26.2326 27.7313 26.7159 27.2236 27.2235C26.716 27.7312 26.2327 28.0455 25.5556 28.3087C25.0444 28.5073 24.2763 28.7437 22.8619 28.8082C21.3325 28.8779 20.8737 28.8927 17.0001 28.8927C13.1263 28.8927 12.6676 28.8779 11.1381 28.8082C9.72373 28.7437 8.95561 28.5073 8.44444 28.3087C7.76731 28.0455 7.28406 27.7312 6.7764 27.2235C6.26879 26.7159 5.95439 26.2326 5.69128 25.5555C5.49262 25.0443 5.25629 24.2762 5.19174 22.8619C5.12195 21.3322 5.10721 20.8734 5.10721 17C5.10721 13.1265 5.12195 12.6677 5.19174 11.138C5.25629 9.72363 5.49262 8.95552 5.69128 8.44435C5.95439 7.76727 6.26879 7.28397 6.7764 6.77636C7.28406 6.26876 7.76731 5.95435 8.44444 5.69119C8.95561 5.49258 9.72373 5.25626 11.1381 5.19171C12.6678 5.12192 13.1266 5.10717 17.0001 5.10717Z" fill="url(#paint0_linear_15_581)"/>
<path d="M17.0001 21.8355C14.3295 21.8355 12.1646 19.6705 12.1646 17C12.1646 14.3293 14.3295 12.1644 17.0001 12.1644C19.6707 12.1644 21.8357 14.3293 21.8357 17C21.8357 19.6705 19.6707 21.8355 17.0001 21.8355ZM17.0001 9.5506C12.8859 9.5506 9.55078 12.8858 9.55078 17C9.55078 21.1141 12.8859 24.4493 17.0001 24.4493C21.1143 24.4493 24.4495 21.1141 24.4495 17C24.4495 12.8858 21.1143 9.5506 17.0001 9.5506Z" fill="url(#paint1_linear_15_581)"/>
<path d="M26.4845 9.25627C26.4845 10.2177 25.7051 10.997 24.7437 10.997C23.7823 10.997 23.0029 10.2177 23.0029 9.25627C23.0029 8.29485 23.7823 7.5155 24.7437 7.5155C25.7051 7.5155 26.4845 8.29485 26.4845 9.25627Z" fill="url(#paint2_linear_15_581)"/>
<defs>
<linearGradient id="paint0_linear_15_581" x1="2.49341" y1="18.5957" x2="31.5066" y2="18.5957" gradientUnits="userSpaceOnUse">
<stop stop-color="#F50591"/>
<stop offset="0.5" stop-color="#713187"/>
<stop offset="1" stop-color="#519FFC"/>
</linearGradient>
<linearGradient id="paint1_linear_15_581" x1="9.55078" y1="17.8194" x2="24.4495" y2="17.8194" gradientUnits="userSpaceOnUse">
<stop stop-color="#F50591"/>
<stop offset="0.5" stop-color="#713187"/>
<stop offset="1" stop-color="#519FFC"/>
</linearGradient>
<linearGradient id="paint2_linear_15_581" x1="23.0029" y1="9.44775" x2="26.4845" y2="9.44775" gradientUnits="userSpaceOnUse">
<stop stop-color="#F50591"/>
<stop offset="0.5" stop-color="#713187"/>
<stop offset="1" stop-color="#519FFC"/>
</linearGradient>
</defs>
</svg>
